<svg width="96" height="96" xmlns="http://www.w3.org/2000/svg" xmlns:xlink="http://www.w3.org/1999/xlink" overflow="hidden"><defs><clipPath id="clip0"><rect x="0" y="0" width="96" height="96"/></clipPath></defs><g clip-path="url(#clip0)"><path d="M48 10C27 10 10 27 10 48 10 69 27 86 48 86 69 86 86 69 86 48 86 27 69 10 48 10ZM46 20C48.8 20 51 22.2 51 25 51 27.8 48.8 30 46 30 43.2 30 41 27.8 41 25 41 22.2 43.2 20 46 20ZM58 76 38 76 38 70 45 70 45 40 39 40 39 34 51 34 51 40 51 70 58 70 58 76Z"/></g></svg>